<svg xmlns="http://www.w3.org/2000/svg" width="1024" height="1024" viewBox="0 0 1024 1024" role="img" aria-labelledby="title desc">
  <title id="title">SecraCloud Mark</title>
  <desc id="desc">Transparent standalone SecraCloud cloud-vault brand mark.</desc>
  <defs>
    <linearGradient id="mark" x1="174" y1="254" x2="864" y2="764" gradientUnits="userSpaceOnUse">
      <stop offset="0" stop-color="#9BFFF3"/>
      <stop offset=".52" stop-color="#22D6FF"/>
      <stop offset="1" stop-color="#7B6DFF"/>
    </linearGradient>
  </defs>
  <path d="M279 642c-72 0-131-57-131-128 0-65 49-119 112-127 34-104 131-176 246-176 130 0 238 96 255 221 66 13 115 71 115 141 0 79-64 143-143 143H279Z" fill="url(#mark)"/>
  <path d="M503 336 632 466 512 620 392 466Z" fill="#07151A" opacity=".92"/>
  <path d="M503 392 567 465 512 536 456 465Z" fill="#22D6FF" opacity=".95"/>
  <circle cx="713" cy="329" r="34" fill="#9BFFF3"/>
</svg>
