<svg xmlns="http://www.w3.org/2000/svg" width="1024" height="1024" viewBox="0 0 1024 1024" role="img" aria-labelledby="title desc">
  <title id="title">SecraCloud Mark</title>
  <desc id="desc">Transparent standalone SecraCloud cloud-vault brand mark.</desc>
  <defs>
    <linearGradient id="mark" x1="174" y1="254" x2="864" y2="764" gradientUnits="userSpaceOnUse">
      <stop offset="0" stop-color="#9BFFF3"/>
      <stop offset=".52" stop-color="#22D6FF"/>
      <stop offset="1" stop-color="#7B6DFF"/>
    </linearGradient>
  </defs>
  <path d="M278 730h492c86 0 156-70 156-156 0-74-54-138-126-152-16-136-134-240-276-240-122 0-230 76-266 188-68 8-122 66-122 136 0 76 64 138 142 138-46 12-72 48-60 72 18 10 38 14 60 14Z" fill="url(#mark)"/>
  <path d="M504 322 638 456 512 618 386 456Z" fill="#07151A" opacity=".92"/>
  <path d="M504 380 574 456 512 536 450 456Z" fill="#22D6FF" opacity=".95"/>
  <circle cx="730" cy="316" r="36" fill="#9BFFF3"/>
</svg>
